# xmcd
#
# Track frame offsets:
#	150
#	12257
#	23455
#	38463
#	53176
#	66169
#	75394
#	86081
#	102604
#	113227
#	129517
#	141782
#	153440
#	165078
#	176884
#	189016
#	199764
#	211901
#	225937
#	239626
#
# Disc length: 3356 seconds
#
# Revision: 0
# Processed by: cddbd v1.5.2PL0 Copyright (c) Steve Scherf et al.
# Submitted via: EasyCDDAExtractor 12.0.1.1
#
DISCID=f70d1a14
DTITLE=Perry Como - The Very Best of
DYEAR=1900
DGENRE=
TTITLE0=I'm Gonna Love That Gal
TTITLE1=Till the End of Time
TTITLE2=Dig You Later
TTITLE3=I'm Always Chasing Rainbows
TTITLE4=Prisoner of Love
TTITLE5=Surrender
TTITLE6=Chi-Baba, Chi-Baba
TTITLE7=Because
TTITLE8="A" - You're Adorable
TTITLE9=Some Enchanted Evening
TTITLE10=Hoop Dee-Doo
TTITLE11=If
TTITLE12=Don't Let the Stars Get in Your Eyes
TTITLE13=No Other Love
TTITLE14=Wanted
TTITLE15=Papa Loves Mambo
TTITLE16=Hot Diggity
TTITLE17=Round and Round
TTITLE18=Catch a Falling Star
TTITLE19=It's Impossible
EXTD=
EXTT0=
EXTT1=
EXTT2=
EXTT3=
EXTT4=
EXTT5=
EXTT6=
EXTT7=
EXTT8=
EXTT9=
EXTT10=
EXTT11=
EXTT12=
EXTT13=
EXTT14=
EXTT15=
EXTT16=
EXTT17=
EXTT18=
EXTT19=
PLAYORDER=
